<?xml version="1.0" encoding="UTF-8"?>
<svg width="57px" height="56px" viewBox="0 0 57 56" version="1.1" xmlns="http://www.w3.org/2000/svg" xmlns:xlink="http://www.w3.org/1999/xlink">
    <!-- Generator: Sketch 47.1 (45422) - http://www.bohemiancoding.com/sketch -->
    <title>fond-3</title>
    <desc>Created with Sketch.</desc>
    <defs></defs>
    <g id="Page-1" stroke="none" stroke-width="1" fill="none" fill-rule="evenodd">
        <g id="1366" transform="translate(-936.000000, -1903.000000)">
            <g id="Group-32" transform="translate(176.000000, 1802.000000)">
                <g id="Group-31">
                    <g id="Group-30" transform="translate(760.569391, 101.000000)">
                        <g id="fond-3">
                            <path d="M28,0 C12.561,0 0,12.561 0,28 C0,43.439 12.561,56 28,56 C43.439,56 56,43.439 56,28 C56,12.561 43.439,0 28,0 M28,3 C41.807,3 53,14.193 53,28 C53,41.807 41.807,53 28,53 C14.193,53 3,41.807 3,28 C3,14.193 14.193,3 28,3" id="Fill-1" fill="#7DC8D2"></path>
                            <polygon id="Fill-3" fill="#FFFFFF" points="19.8181 43.6037 13.2951 37.0807 31.8861 18.4897 38.4091 25.0127"></polygon>
                            <polygon id="Stroke-5" stroke="#7DC8D2" stroke-width="3" points="19.8181 43.6037 13.2951 37.0807 31.8861 18.4897 38.4091 25.0127"></polygon>
                            <polyline id="Stroke-7" stroke="#7DC8D2" stroke-width="3" points="38.5802 24.8416 40.2162 23.2056 42.6712 14.4096 33.6932 16.6826 32.0572 18.3186"></polyline>
                            <path d="M38.544,15.4548 C38.544,16.3858 40.398,18.4538 41.543,18.4538" id="Stroke-9" stroke="#7DC8D2" stroke-width="3"></path>
                            <polygon id="Fill-11" fill="#FFFFFF" points="42.8828 37.5073 36.5188 43.8713 11.7698 19.1223 18.1338 12.7583"></polygon>
                            <polygon id="Stroke-13" stroke="#7DC8D2" stroke-width="3" points="42.8828 37.5073 36.5188 43.8713 11.7698 19.1223 18.1338 12.7583"></polygon>
                            <path d="M19.0726,20.3918 L21.9006,17.5638" id="Stroke-15" stroke="#7DC8D2" stroke-width="3"></path>
                            <path d="M23.3152,24.6344 L26.1432,21.8064" id="Stroke-17" stroke="#7DC8D2" stroke-width="3"></path>
                            <path d="M27.5578,28.8771 L30.3858,26.0491" id="Stroke-19" stroke="#7DC8D2" stroke-width="3"></path>
                            <path d="M36.0431,37.3624 L38.8711,34.5344" id="Stroke-21" stroke="#7DC8D2" stroke-width="3"></path>
                            <path d="M31.8005,33.1197 L34.6285,30.2917" id="Stroke-23" stroke="#7DC8D2" stroke-width="3"></path>
                        </g>
                    </g>
                </g>
            </g>
        </g>
    </g>
</svg>