<?xml version="1.0" encoding="UTF-8"?>
<svg width="56px" height="56px" viewBox="0 0 56 56" version="1.1" xmlns="http://www.w3.org/2000/svg" xmlns:xlink="http://www.w3.org/1999/xlink">
    <!-- Generator: Sketch 47.1 (45422) - http://www.bohemiancoding.com/sketch -->
    <title>fond-1</title>
    <desc>Created with Sketch.</desc>
    <defs></defs>
    <g id="Page-1" stroke="none" stroke-width="1" fill="none" fill-rule="evenodd">
        <g id="1366" transform="translate(-355.000000, -1903.000000)">
            <g id="Group-32" transform="translate(176.000000, 1802.000000)">
                <g id="Group-31">
                    <g id="fond-1" transform="translate(179.000000, 101.000000)">
                        <path d="M28,0 C12.561,0 0,12.561 0,28 C0,43.439 12.561,56 28,56 C43.439,56 56,43.439 56,28 C56,12.561 43.439,0 28,0 M28,3 C41.807,3 53,14.193 53,28 C53,41.807 41.807,53 28,53 C14.193,53 3,41.807 3,28 C3,14.193 14.193,3 28,3" id="Fill-1" fill="#7DC8D2"></path>
                        <g id="Group-6" transform="translate(27.000000, 8.000000)">
                            <path d="M0.7312,0.8351 L0.7312,34.8351" id="Fill-3" fill="#FFFFFF"></path>
                            <path d="M0.7312,0.8351 L0.7312,34.8351" id="Stroke-5" stroke="#7DC8D2" stroke-width="3"></path>
                        </g>
                        <g id="Group-10" transform="translate(14.000000, 17.000000)">
                            <path d="M0.7985,0.4628 L26.6635,0.4628" id="Fill-7" fill="#FFFFFF"></path>
                            <path d="M0.7985,0.4628 L26.6635,0.4628" id="Stroke-9" stroke="#7DC8D2" stroke-width="3"></path>
                        </g>
                        <path d="M46.7865,26.364 C46.7865,29.678 44.1005,32.364 40.7865,32.364 C37.4725,32.364 34.7865,29.678 34.7865,26.364 L46.7865,26.364 Z" id="Fill-11" fill="#FFFFFF"></path>
                        <path d="M46.7865,26.364 C46.7865,29.678 44.1005,32.364 40.7865,32.364 C37.4725,32.364 34.7865,29.678 34.7865,26.364 L46.7865,26.364 Z" id="Stroke-13" stroke="#7DC8D2" stroke-width="3"></path>
                        <polyline id="Stroke-15" stroke="#7DC8D2" stroke-width="3" points="34.7865 25.4735 34.7865 24.6225 40.6475 18.2385 46.7865 24.6425 46.7865 25.4995"></polyline>
                        <path d="M20.9398,26.364 C20.9398,29.678 18.2538,32.364 14.9398,32.364 C11.6258,32.364 8.9398,29.678 8.9398,26.364 L20.9398,26.364 Z" id="Fill-17" fill="#FFFFFF"></path>
                        <path d="M20.9398,26.364 C20.9398,29.678 18.2538,32.364 14.9398,32.364 C11.6258,32.364 8.9398,29.678 8.9398,26.364 L20.9398,26.364 Z" id="Stroke-19" stroke="#7DC8D2" stroke-width="3"></path>
                        <polyline id="Stroke-21" stroke="#7DC8D2" stroke-width="3" points="8.9398 25.4735 8.9398 24.6225 14.8008 18.2385 20.9398 24.6425 20.9398 25.4995"></polyline>
                        <polygon id="Fill-23" fill="#FFFFFF" points="27.7313 38.002 21.2313 43.465 21.2313 44.976 34.2313 44.976 34.2313 43.461"></polygon>
                        <polygon id="Stroke-25" stroke="#7DC8D2" stroke-width="3" points="27.7313 38.002 21.2313 43.465 21.2313 44.976 34.2313 44.976 34.2313 43.461"></polygon>
                    </g>
                </g>
            </g>
        </g>
    </g>
</svg>