<?xml version="1.0" encoding="UTF-8"?>
<svg width="56px" height="56px" viewBox="0 0 56 56" version="1.1" xmlns="http://www.w3.org/2000/svg" xmlns:xlink="http://www.w3.org/1999/xlink">
    <!-- Generator: Sketch 47.1 (45422) - http://www.bohemiancoding.com/sketch -->
    <title>fond-2</title>
    <desc>Created with Sketch.</desc>
    <defs>
        <polygon id="path-1" points="28.00005 56 56 56 56 0 28.00005 0 0.0001 0 0.0001 56 28.00005 56"></polygon>
    </defs>
    <g id="Page-1" stroke="none" stroke-width="1" fill="none" fill-rule="evenodd">
        <g id="1366" transform="translate(-643.000000, -1908.000000)">
            <g id="Group-32" transform="translate(176.000000, 1802.000000)">
                <g id="Group-31">
                    <g id="fond-2" transform="translate(467.000000, 106.000000)">
                        <g id="Group-3">
                            <mask id="mask-2" fill="white">
                                <use xlink:href="#path-1"></use>
                            </mask>
                            <g id="Clip-2"></g>
                            <path d="M28.0001,0 C12.5611,0 0.0001,12.561 0.0001,28 C0.0001,43.439 12.5611,56 28.0001,56 C43.4391,56 56.0001,43.439 56.0001,28 C56.0001,12.561 43.4391,0 28.0001,0 M28.0001,3 C41.8071,3 53.0001,14.193 53.0001,28 C53.0001,41.807 41.8071,53 28.0001,53 C14.1931,53 3.0001,41.807 3.0001,28 C3.0001,14.193 14.1931,3 28.0001,3" id="Fill-1" fill="#7DC8D2" mask="url(#mask-2)"></path>
                        </g>
                        <path d="M23.2014,24.933 L26.4404,17.687" id="Stroke-4" stroke="#7DC8D2" stroke-width="3"></path>
                        <path d="M27.8953,32.7719 L35.8123,33.3379" id="Stroke-6" stroke="#7DC8D2" stroke-width="3"></path>
                        <path d="M28.6875,27.2789 L34.6935,23.6829" id="Stroke-8" stroke="#7DC8D2" stroke-width="3"></path>
                        <path d="M28.6887,29.9582 C29.1547,32.8982 28.8347,36.7092 26.2337,38.2672 C22.7667,40.3432 17.2687,38.2582 15.0857,34.6122 C12.9027,30.9662 13.5737,26.0332 17.0407,23.9572 C19.8547,22.2722 23.7707,23.0862 26.1747,25.2892" id="Stroke-10" stroke="#FFFFFF" stroke-width="3"></path>
                        <path d="M41.2215,29.7183 C42.9095,28.7073 45.0975,29.2563 46.1085,30.9443 C47.1185,32.6323 46.5695,34.8203 44.8815,35.8313 C43.1935,36.8423 41.0065,36.2933 39.9955,34.6053 C38.9845,32.9173 39.5335,30.7293 41.2215,29.7183 Z" id="Stroke-12" stroke="#7DC8D2" stroke-width="3"></path>
                        <path d="M28.3783,8.2701 C30.0663,7.2591 32.2543,7.8081 33.2653,9.4961 C34.2753,11.1841 33.7263,13.3721 32.0383,14.3831 C30.3503,15.3941 28.1633,14.8451 27.1523,13.1571 C26.1413,11.4691 26.6903,9.2811 28.3783,8.2701 Z" id="Stroke-14" stroke="#7DC8D2" stroke-width="3"></path>
                        <path d="M40.0438,16.0724 C41.7318,15.0614 43.9198,15.6104 44.9308,17.2984 C45.9408,18.9864 45.3918,21.1744 43.7038,22.1854 C42.0158,23.1964 39.8288,22.6474 38.8178,20.9594 C37.8068,19.2714 38.3558,17.0834 40.0438,16.0724 Z" id="Stroke-16" stroke="#7DC8D2" stroke-width="3"></path>
                        <g id="Group-21" transform="translate(11.000000, 26.000000)">
                            <path d="M15.0219,14.041 C15.0219,11.113 13.2469,8.449 10.6999,7.326 C10.3529,7.172 10.2579,6.738 10.5189,6.465 C11.3199,5.631 11.7399,4.438 11.5059,3.156 C11.2309,1.653 10.0149,0.433 8.4939,0.142 C6.0299,-0.329 3.8729,1.518 3.8729,3.861 C3.8729,4.873 4.2759,5.792 4.9309,6.472 C5.1909,6.741 5.0879,7.174 4.7439,7.326 C2.1969,8.449 0.4219,10.966 0.4219,13.894" id="Fill-18" fill="#FFFFFF"></path>
                            <path d="M15.0219,14.041 C15.0219,11.113 13.2469,8.449 10.6999,7.326 C10.3529,7.172 10.2579,6.738 10.5189,6.465 C11.3199,5.631 11.7399,4.438 11.5059,3.156 C11.2309,1.653 10.0149,0.433 8.4939,0.142 C6.0299,-0.329 3.8729,1.518 3.8729,3.861 C3.8729,4.873 4.2759,5.792 4.9309,6.472 C5.1909,6.741 5.0879,7.174 4.7439,7.326 C2.1969,8.449 0.4219,10.966 0.4219,13.894" id="Stroke-20" stroke="#7DC8D2" stroke-width="3"></path>
                        </g>
                    </g>
                </g>
            </g>
        </g>
    </g>
</svg>