<?xml version="1.0" encoding="UTF-8"?>
<svg width="884px" height="26px" viewBox="0 0 884 26" version="1.1" xmlns="http://www.w3.org/2000/svg" xmlns:xlink="http://www.w3.org/1999/xlink">
    <!-- Generator: Sketch 47.1 (45422) - http://www.bohemiancoding.com/sketch -->
    <title>logo</title>
    <desc>Created with Sketch.</desc>
    <defs></defs>
    <g id="Page-1" stroke="none" stroke-width="1" fill="none" fill-rule="evenodd">
        <g id="1366(1)-copy-2" transform="translate(-241.000000, -382.000000)" fill="#FFFFFF">
            <g id="Page-1-Copy-3" transform="translate(241.000000, 382.000000)">
                <g id="logo">
                    <polygon class="logo-dash" points="31.9217933 15.201 109.41398 15.201 109.41398 10.2522857 31.9217933 10.2522857"></polygon>
                    <polygon class="logo-dash" points="157.74832 15.201 235.240507 15.201 235.240507 10.2522857 157.74832 10.2522857"></polygon>
                    <polygon class="logo-dash" points="280.992332 15.201 358.484518 15.201 358.484518 10.2522857 280.992332 10.2522857"></polygon>
                    <polygon class="logo-dash" points="406.817572 15.201 484.309758 15.201 484.309758 10.2522857 406.817572 10.2522857"></polygon>
                    <polygon class="logo-dash" points="528.583103 15.201 606.07529 15.201 606.07529 10.2522857 528.583103 10.2522857"></polygon>
                    <polygon class="logo-dash" points="646.663371 15.201 724.155557 15.201 724.155557 10.2522857 646.663371 10.2522857"></polygon>
                    <polygon class="logo-dash" points="768.920443 15.201 846.412629 15.201 846.412629 10.2522857 768.920443 10.2522857"></polygon>
                    <polygon class="logo-letter" points="877.648674 1 870.522221 13.2388673 863.419297 1 857 1 857 24 862.947424 24 862.947424 10.1750561 869.066082 20.5280167 871.957446 20.5280167 878.052576 10.1750561 878.052576 24 884 24 884 1"></polygon>
                    <polygon class="logo-letter" points="757.955626 24.8936143 751.736744 24.8936143 751.736744 10.0500429 741.31661 24.8936143 735.120889 24.8936143 735.120889 1.42032857 741.31661 1.42032857 741.31661 16.2407571 751.736744 1.42032857 757.955626 1.42032857"></polygon>
                    <polygon class="logo-letter" points="635.697654 6.79062857 629.595866 6.79062857 629.595866 24.8934857 623.189118 24.8934857 623.189118 6.79062857 617.041007 6.79062857 617.041007 1.4202 635.697654 1.4202"></polygon>
                    <polygon class="logo-letter" points="517.617386 24.8936143 511.304571 24.8936143 511.304571 15.1851857 501.588291 15.1851857 501.588291 24.8936143 495.275476 24.8936143 495.275476 1.42032857 501.588291 1.42032857 501.588291 10.2377571 511.304571 10.2377571 511.304571 1.42032857 517.617386 1.42032857"></polygon>
                    <path d="M389.258012,13.1688 C389.258012,11.2775143 388.627503,9.67937143 387.367771,8.37308571 C386.109325,7.06808571 384.539485,6.41494286 382.663398,6.41494286 C380.786024,6.41494286 379.21361,7.06808571 377.946158,8.37308571 C376.678705,9.67937143 376.044335,11.2775143 376.044335,13.1688 C376.044335,15.0613714 376.678705,16.6633714 377.946158,17.9760857 C379.21361,19.2888 380.786024,19.9458 382.663398,19.9458 C384.539485,19.9458 386.109325,19.2888 387.367771,17.9760857 C388.627503,16.6633714 389.258012,15.0613714 389.258012,13.1688 M395.852626,13.1688 C395.852626,16.6080857 394.608335,19.5472286 392.12104,21.9862286 C389.570693,24.4715143 386.418146,25.7148 382.663398,25.7148 C378.876481,25.7148 375.716213,24.4715143 373.181308,21.9862286 C370.694012,19.5626571 369.449721,16.6248 369.449721,13.1688 C369.449721,9.72951429 370.694012,6.80708571 373.181308,4.39894286 C375.716213,1.92908571 378.876481,0.693514286 382.663398,0.693514286 C386.433587,0.693514286 389.586134,1.92908571 392.12104,4.39894286 C394.608335,6.80708571 395.852626,9.72951429 395.852626,13.1688" class="logo-letter"></path>
                    <path d="M270.027,24.8936143 L263.714185,24.8936143 L263.714185,6.79075714 L256.579134,6.79075714 L256.579134,17.0147571 C256.579134,22.6577571 254.467571,25.4799 250.243157,25.4799 C248.991146,25.4799 247.645201,25.2844714 246.20661,24.8936143 L246.674989,19.6183286 C247.176823,19.8523286 247.770016,19.9693286 248.459716,19.9693286 C249.194453,19.9693286 249.718162,19.7353286 250.03213,19.2673286 C250.391134,18.7196143 250.57128,17.6897571 250.57128,16.1751857 L250.57128,1.42032857 L270.027,1.42032857 L270.027,24.8936143 Z" class="logo-letter"></path>
                    <path d="M140.188117,13.1688 C140.188117,11.2775143 139.557608,9.67937143 138.299162,8.37308571 C137.03943,7.06808571 135.470877,6.41494286 133.593503,6.41494286 C131.716129,6.41494286 130.143715,7.06808571 128.876263,8.37308571 C127.60881,9.67937143 126.97444,11.2775143 126.97444,13.1688 C126.97444,15.0613714 127.60881,16.6633714 128.876263,17.9760857 C130.143715,19.2888 131.716129,19.9458 133.593503,19.9458 C135.470877,19.9458 137.03943,19.2888 138.299162,17.9760857 C139.557608,16.6633714 140.188117,15.0613714 140.188117,13.1688 M146.782731,13.1688 C146.782731,16.6080857 145.539727,19.5472286 143.051145,21.9862286 C140.500798,24.4715143 137.348251,25.7148 133.593503,25.7148 C129.806586,25.7148 126.646318,24.4715143 124.112699,21.9862286 C121.624117,19.5626571 120.379826,16.6248 120.379826,13.1688 C120.379826,9.72951429 121.624117,6.80708571 124.112699,4.39894286 C126.646318,1.92908571 129.806586,0.693514286 133.593503,0.693514286 C137.363692,0.693514286 140.516239,1.92908571 143.051145,4.39894286 C145.539727,6.80708571 146.782731,9.72951429 146.782731,13.1688" class="logo-letter"></path>
                    <path d="M14.4566812,17.7885 C14.4566812,15.8342143 13.0168035,14.8570714 10.1383348,14.8570714 L6.19572052,14.8570714 L6.19572052,20.3213571 L10.608,20.3213571 C13.1737875,20.3213571 14.4566812,19.4766429 14.4566812,17.7885 Z M13.4941892,8.36164286 C13.4941892,6.76735714 12.3129491,5.97021429 9.9504687,5.97021429 L6.19572052,5.97021429 L6.19572052,10.9176429 L9.50396507,10.9176429 C10.7405357,10.9176429 11.7261892,10.6669286 12.4622125,10.1667857 C13.1506259,9.68335714 13.4941892,9.08035714 13.4941892,8.36164286 Z M20.9573624,18.3040714 C20.9573624,20.0719286 20.2998311,21.5569286 18.9860553,22.7603571 C17.4368035,24.1823571 15.2081456,24.8933571 12.297508,24.8933571 L0,24.8933571 L0,1.42007143 L10.4201339,1.42007143 C13.4864687,1.42007143 15.7858981,2.04621429 17.3197089,3.29721429 C18.6180437,4.34378571 19.2678544,5.69635714 19.2678544,7.35364286 C19.2678544,9.79135714 18.1959884,11.3316429 16.0522562,11.9732143 C19.3218981,12.8950714 20.9573624,15.0062143 20.9573624,18.3040714 Z" class="logo-letter"></path>
                </g>
            </g>
        </g>
    </g>
</svg>
