<?xml version="1.0" encoding="UTF-8"?>
<svg width="884px" height="26px" viewBox="0 0 884 26" version="1.1" xmlns="http://www.w3.org/2000/svg" xmlns:xlink="http://www.w3.org/1999/xlink">
    <!-- Generator: Sketch 47.1 (45422) - http://www.bohemiancoding.com/sketch -->
    <title>logo</title>
    <desc>Created with Sketch.</desc>
    <defs>
        <polygon id="path-1" points="0.151322271 25.7142857 26.5542277 25.7142857 26.5542277 0.693514286 0.151322271 0.693514286 0.151322271 25.7142857"></polygon>
        <polygon id="path-3" points="0.711703639 25.7142857 27.114609 25.7142857 27.114609 0.693514286 0.711703639 0.693514286 0.711703639 25.7142857"></polygon>
        <polygon id="path-5" points="0 25.7142857 883.957537 25.7142857 883.957537 0.693 0 0.693"></polygon>
    </defs>
    <g id="Page-1" stroke="none" stroke-width="1" fill="none" fill-rule="evenodd">
        <g id="1366" transform="translate(-241.000000, -382.000000)">
            <g id="Page-1" transform="translate(241.000000, 381.000000)">
                <g id="logo" transform="translate(0.000000, 0.592200)">
                    <polygon id="Fill-1" fill="#FFFFFF" points="877.705457 1.38767143 870.690074 13.8783857 863.697853 1.38767143 857.378604 1.38767143 857.378604 24.8609571 863.233334 24.8609571 863.233334 10.7515286 869.25663 21.3175286 872.10293 21.3175286 878.103064 10.7515286 878.103064 24.8609571 883.957794 24.8609571 883.957794 1.38767143"></polygon>
                    <polygon id="Fill-16" fill="#FFFFFF" points="757.955626 24.8936143 751.736744 24.8936143 751.736744 10.0500429 741.31661 24.8936143 735.120889 24.8936143 735.120889 1.42032857 741.31661 1.42032857 741.31661 16.2407571 751.736744 1.42032857 757.955626 1.42032857"></polygon>
                    <polygon id="Fill-14" fill="#FFFFFF" points="635.697654 6.79062857 629.595866 6.79062857 629.595866 24.8934857 623.189118 24.8934857 623.189118 6.79062857 617.041007 6.79062857 617.041007 1.4202 635.697654 1.4202"></polygon>
                    <polygon id="Fill-12" fill="#FFFFFF" points="517.617386 24.8936143 511.304571 24.8936143 511.304571 15.1851857 501.588291 15.1851857 501.588291 24.8936143 495.275476 24.8936143 495.275476 1.42032857 501.588291 1.42032857 501.588291 10.2377571 511.304571 10.2377571 511.304571 1.42032857 517.617386 1.42032857"></polygon>
                    <g id="Group-11" transform="translate(369.298399, 0.000000)">
                        <mask id="mask-2" fill="white">
                            <use xlink:href="#path-1"></use>
                        </mask>
                        <g id="Clip-10"></g>
                        <path d="M19.9596134,13.1688 C19.9596134,11.2775143 19.3291039,9.67937143 18.0693718,8.37308571 C16.8109263,7.06808571 15.2410865,6.41494286 13.3649991,6.41494286 C11.487625,6.41494286 9.91521164,7.06808571 8.64775895,8.37308571 C7.38030626,9.67937143 6.74593654,11.2775143 6.74593654,13.1688 C6.74593654,15.0613714 7.38030626,16.6633714 8.64775895,17.9760857 C9.91521164,19.2888 11.487625,19.9458 13.3649991,19.9458 C15.2410865,19.9458 16.8109263,19.2888 18.0693718,17.9760857 C19.3291039,16.6633714 19.9596134,15.0613714 19.9596134,13.1688 M26.5542277,13.1688 C26.5542277,16.6080857 25.3099365,19.5472286 22.822641,21.9862286 C20.2722946,24.4715143 17.1197473,25.7148 13.3649991,25.7148 C9.5780821,25.7148 6.41781426,24.4715143 3.88290888,21.9862286 C1.39561339,19.5626571 0.151322271,16.6248 0.151322271,13.1688 C0.151322271,9.72951429 1.39561339,6.80708571 3.88290888,4.39894286 C6.41781426,1.92908571 9.5780821,0.693514286 13.3649991,0.693514286 C17.1351884,0.693514286 20.2877357,1.92908571 22.822641,4.39894286 C25.3099365,6.80708571 26.5542277,9.72951429 26.5542277,13.1688" id="Fill-9" fill="#FFFFFF" mask="url(#mask-2)"></path>
                    </g>
                    <path d="M270.027,24.8936143 L263.714185,24.8936143 L263.714185,6.79075714 L256.579134,6.79075714 L256.579134,17.0147571 C256.579134,22.6577571 254.467571,25.4799 250.243157,25.4799 C248.991146,25.4799 247.645201,25.2844714 246.20661,24.8936143 L246.674989,19.6183286 C247.176823,19.8523286 247.770016,19.9693286 248.459716,19.9693286 C249.194453,19.9693286 249.718162,19.7353286 250.03213,19.2673286 C250.391134,18.7196143 250.57128,17.6897571 250.57128,16.1751857 L250.57128,1.42032857 L270.027,1.42032857 L270.027,24.8936143 Z" id="Fill-7" fill="#FFFFFF"></path>
                    <g id="Group-6" transform="translate(119.668122, 0.000000)">
                        <mask id="mask-4" fill="white">
                            <use xlink:href="#path-3"></use>
                        </mask>
                        <g id="Clip-5"></g>
                        <path d="M20.5199948,13.1688 C20.5199948,11.2775143 19.8894853,9.67937143 18.6310399,8.37308571 C17.3713077,7.06808571 15.8027546,6.41494286 13.9253805,6.41494286 C12.0480064,6.41494286 10.475593,7.06808571 9.20814032,8.37308571 C7.94068763,9.67937143 7.3063179,11.2775143 7.3063179,13.1688 C7.3063179,15.0613714 7.94068763,16.6633714 9.20814032,17.9760857 C10.475593,19.2888 12.0480064,19.9458 13.9253805,19.9458 C15.8027546,19.9458 17.3713077,19.2888 18.6310399,17.9760857 C19.8894853,16.6633714 20.5199948,15.0613714 20.5199948,13.1688 M27.114609,13.1688 C27.114609,16.6080857 25.8716047,19.5472286 23.3830224,21.9862286 C20.832676,24.4715143 17.6801287,25.7148 13.9253805,25.7148 C10.1384635,25.7148 6.97819563,24.4715143 4.444577,21.9862286 C1.95599476,19.5626571 0.711703639,16.6248 0.711703639,13.1688 C0.711703639,9.72951429 1.95599476,6.80708571 4.444577,4.39894286 C6.97819563,1.92908571 10.1384635,0.693514286 13.9253805,0.693514286 C17.6955697,0.693514286 20.848117,1.92908571 23.3830224,4.39894286 C25.8716047,6.80708571 27.114609,9.72951429 27.114609,13.1688" id="Fill-4" fill="#FFFFFF" mask="url(#mask-4)"></path>
                    </g>
                    <path d="M14.4566812,17.7885 C14.4566812,15.8342143 13.0168035,14.8570714 10.1383348,14.8570714 L6.19572052,14.8570714 L6.19572052,20.3213571 L10.608,20.3213571 C13.1737875,20.3213571 14.4566812,19.4766429 14.4566812,17.7885 Z M13.4941892,8.36164286 C13.4941892,6.76735714 12.3129491,5.97021429 9.9504687,5.97021429 L6.19572052,5.97021429 L6.19572052,10.9176429 L9.50396507,10.9176429 C10.7405357,10.9176429 11.7261892,10.6669286 12.4622125,10.1667857 C13.1506259,9.68335714 13.4941892,9.08035714 13.4941892,8.36164286 Z M20.9573624,18.3040714 C20.9573624,20.0719286 20.2998311,21.5569286 18.9860553,22.7603571 C17.4368035,24.1823571 15.2081456,24.8933571 12.297508,24.8933571 L0,24.8933571 L0,1.42007143 L10.4201339,1.42007143 C13.4864687,1.42007143 15.7858981,2.04621429 17.3197089,3.29721429 C18.6180437,4.34378571 19.2678544,5.69635714 19.2678544,7.35364286 C19.2678544,9.79135714 18.1959884,11.3316429 16.0522562,11.9732143 C19.3218981,12.8950714 20.9573624,15.0062143 20.9573624,18.3040714 Z" id="Fill-2" fill="#FFFFFF"></path>
                    <mask id="mask-6" fill="white">
                        <use xlink:href="#path-5"></use>
                    </mask>
                    <g id="Clip-19"></g>
                    <polygon id="Fill-18" fill="#FFFFFF" mask="url(#mask-6)" points="31.9217933 15.201 109.41398 15.201 109.41398 10.2522857 31.9217933 10.2522857"></polygon>
                    <polygon id="Fill-20" fill="#FFFFFF" mask="url(#mask-6)" points="157.74832 15.201 235.240507 15.201 235.240507 10.2522857 157.74832 10.2522857"></polygon>
                    <polygon id="Fill-21" fill="#FFFFFF" mask="url(#mask-6)" points="280.992332 15.201 358.484518 15.201 358.484518 10.2522857 280.992332 10.2522857"></polygon>
                    <polygon id="Fill-22" fill="#FFFFFF" mask="url(#mask-6)" points="406.817572 15.201 484.309758 15.201 484.309758 10.2522857 406.817572 10.2522857"></polygon>
                    <polygon id="Fill-23" fill="#FFFFFF" mask="url(#mask-6)" points="528.583103 15.201 606.07529 15.201 606.07529 10.2522857 528.583103 10.2522857"></polygon>
                    <polygon id="Fill-24" fill="#FFFFFF" mask="url(#mask-6)" points="646.663371 15.201 724.155557 15.201 724.155557 10.2522857 646.663371 10.2522857"></polygon>
                    <polygon id="Fill-25" fill="#FFFFFF" mask="url(#mask-6)" points="768.920443 15.201 846.412629 15.201 846.412629 10.2522857 768.920443 10.2522857"></polygon>
                </g>
            </g>
        </g>
    </g>
</svg>