<?xml version="1.0" encoding="UTF-8"?>
<svg width="270px" height="14px" viewBox="0 0 270 14" version="1.1" xmlns="http://www.w3.org/2000/svg" xmlns:xlink="http://www.w3.org/1999/xlink">
    <!-- Generator: Sketch 47.1 (45422) - http://www.bohemiancoding.com/sketch -->
    <title>logo-mobile</title>
    <desc>Created with Sketch.</desc>
    <defs>
        <polygon id="path-1" points="0.384435233 13.4453782 14.7371036 13.4453782 14.7371036 0.362621849 0.384435233 0.362621849 0.384435233 13.4453782"></polygon>
        <polygon id="path-3" points="0.0747746114 13.4453782 14.427443 13.4453782 14.427443 0.362621849 0.0747746114 0.362621849 0.0747746114 13.4453782"></polygon>
        <polygon id="path-5" points="0 13.4453782 269.95943 13.4453782 269.95943 0.362352941 0 0.362352941"></polygon>
    </defs>
    <g id="Page-1" stroke="none" stroke-width="1" fill="none" fill-rule="evenodd">
        <g id="Mobile-Portrait-Copy-6" transform="translate(-25.000000, -269.000000)">
            <g id="logo-mobile" transform="translate(25.000000, 269.000000)">
                <polygon id="Fill-1" fill="#FFFFFF" points="266.560927 1.03522689 262.747352 7.56631933 258.946368 1.03522689 255.511212 1.03522689 255.511212 13.3088403 258.693855 13.3088403 258.693855 5.93136134 261.96813 11.4560672 263.515383 11.4560672 266.777067 5.93136134 266.777067 13.3088403 269.95971 13.3088403 269.95971 1.03522689"></polygon>
                <g id="Group-26" transform="translate(0.000000, 0.309647)">
                    <path d="M7.85867876,9.30117647 C7.85867876,8.27932773 7.07595855,7.76840336 5.51121762,7.76840336 L3.36800518,7.76840336 L3.36800518,10.6255462 L5.7665285,10.6255462 C7.16129534,10.6255462 7.85867876,10.1838655 7.85867876,9.30117647 Z M7.33546632,4.37210084 C7.33546632,3.53848739 6.69334197,3.12168067 5.40909326,3.12168067 L3.36800518,3.12168067 L3.36800518,5.70857143 L5.16637306,5.70857143 C5.83857513,5.70857143 6.37437824,5.57747899 6.77448187,5.31596639 C7.14870466,5.06319328 7.33546632,4.74789916 7.33546632,4.37210084 Z M11.3924611,9.5707563 C11.3924611,10.4951261 11.0350259,11.2715966 10.3208549,11.9008403 C9.47867876,12.6443697 8.26717617,13.0161345 6.68494819,13.0161345 L0,13.0161345 L0,0.742521008 L5.66440415,0.742521008 C7.33126943,0.742521008 8.58124352,1.06991597 9.41502591,1.72403361 C10.1208031,2.2712605 10.4740415,2.97848739 10.4740415,3.84504202 C10.4740415,5.11966387 9.89137306,5.92504202 8.72603627,6.2605042 C10.5034197,6.74252101 11.3924611,7.84638655 11.3924611,9.5707563 Z" id="Fill-2" fill="#FFFFFF"></path>
                    <g id="Group-6" transform="translate(34.974093, 0.000000)">
                        <mask id="mask-2" fill="white">
                            <use xlink:href="#path-1"></use>
                        </mask>
                        <g id="Clip-5"></g>
                        <path d="M11.1522591,6.88564706 C11.1522591,5.8967395 10.809513,5.06110924 10.1254197,4.37808403 C9.44062694,3.69573109 8.58795855,3.35421849 7.56741451,3.35421849 C6.54687047,3.35421849 5.69210363,3.69573109 5.00311399,4.37808403 C4.31412435,5.06110924 3.96927979,5.8967395 3.96927979,6.88564706 C3.96927979,7.87522689 4.31412435,8.71287395 5.00311399,9.3992605 C5.69210363,10.0856471 6.54687047,10.4291765 7.56741451,10.4291765 C8.58795855,10.4291765 9.44062694,10.0856471 10.1254197,9.3992605 C10.809513,8.71287395 11.1522591,7.87522689 11.1522591,6.88564706 M14.7371036,6.88564706 C14.7371036,8.68396639 14.0614041,10.2207731 12.7086062,11.4960672 C11.3222332,12.795563 9.60850259,13.4456471 7.56741451,13.4456471 C5.50883938,13.4456471 3.79091192,12.795563 2.41363212,11.4960672 C1.0608342,10.2288403 0.384435233,8.69270588 0.384435233,6.88564706 C0.384435233,5.08732773 1.0608342,3.5592605 2.41363212,2.30010084 C3.79091192,1.00867227 5.50883938,0.362621849 7.56741451,0.362621849 C9.61689637,0.362621849 11.3306269,1.00867227 12.7086062,2.30010084 C14.0614041,3.5592605 14.7371036,5.08732773 14.7371036,6.88564706" id="Fill-4" fill="#FFFFFF" mask="url(#mask-2)"></path>
                    </g>
                    <path d="M86.626772,13.0162689 L83.195114,13.0162689 L83.195114,3.55072269 L79.316487,3.55072269 L79.316487,8.89660504 C79.316487,11.8471933 78.1686373,13.3228235 75.8722383,13.3228235 C75.1916425,13.3228235 74.4599845,13.2206387 73.6779637,13.0162689 L73.9325751,10.2579496 C74.2053731,10.3803025 74.5278342,10.441479 74.9027565,10.441479 C75.3021606,10.441479 75.5868497,10.3191261 75.7575233,10.0744202 C75.9526788,9.78803361 76.0506062,9.24954622 76.0506062,8.45761345 L76.0506062,0.742655462 L86.626772,0.742655462 L86.626772,13.0162689 Z" id="Fill-7" fill="#FFFFFF"></path>
                    <g id="Group-11" transform="translate(110.518135, 0.000000)">
                        <mask id="mask-4" fill="white">
                            <use xlink:href="#path-3"></use>
                        </mask>
                        <g id="Clip-10"></g>
                        <path d="M10.8425984,6.88564706 C10.8425984,5.8967395 10.4998523,5.06110924 9.81505959,4.37808403 C9.13096632,3.69573109 8.27759845,3.35421849 7.25775389,3.35421849 C6.23720984,3.35421849 5.38244301,3.69573109 4.69345337,4.37808403 C4.00446373,5.06110924 3.65961917,5.8967395 3.65961917,6.88564706 C3.65961917,7.87522689 4.00446373,8.71287395 4.69345337,9.3992605 C5.38244301,10.0856471 6.23720984,10.4291765 7.25775389,10.4291765 C8.27759845,10.4291765 9.13096632,10.0856471 9.81505959,9.3992605 C10.4998523,8.71287395 10.8425984,7.87522689 10.8425984,6.88564706 M14.427443,6.88564706 C14.427443,8.68396639 13.751044,10.2207731 12.3989456,11.4960672 C11.0125725,12.795563 9.29884197,13.4456471 7.25775389,13.4456471 C5.19917876,13.4456471 3.4812513,12.795563 2.10327202,11.4960672 C0.751173575,10.2288403 0.0747746114,8.69270588 0.0747746114,6.88564706 C0.0747746114,5.08732773 0.751173575,3.5592605 2.10327202,2.30010084 C3.4812513,1.00867227 5.19917876,0.362621849 7.25775389,0.362621849 C9.30723575,0.362621849 11.0209663,1.00867227 12.3989456,2.30010084 C13.751044,3.5592605 14.427443,5.08732773 14.427443,6.88564706" id="Fill-9" fill="#FFFFFF" mask="url(#mask-4)"></path>
                    </g>
                    <polygon id="Fill-12" fill="#FFFFFF" points="161.056959 13.0162689 157.625301 13.0162689 157.625301 7.93996639 152.343513 7.93996639 152.343513 13.0162689 148.911855 13.0162689 148.911855 0.742655462 152.343513 0.742655462 152.343513 5.35307563 157.625301 5.35307563 157.625301 0.742655462 161.056959 0.742655462"></polygon>
                    <polygon id="Fill-14" fill="#FFFFFF" points="195.165443 3.55065546 191.8485 3.55065546 191.8485 13.0162017 188.36578 13.0162017 188.36578 3.55065546 185.023655 3.55065546 185.023655 0.742588235 195.165443 0.742588235"></polygon>
                    <polygon id="Fill-16" fill="#FFFFFF" points="231.544865 13.0162689 228.164269 13.0162689 228.164269 5.25492437 222.499865 13.0162689 219.13186 13.0162689 219.13186 0.742655462 222.499865 0.742655462 222.499865 8.49189916 228.164269 0.742655462 231.544865 0.742655462"></polygon>
                    <mask id="mask-6" fill="white">
                        <use xlink:href="#path-5"></use>
                    </mask>
                    <g id="Clip-19"></g>
                    <polygon id="Fill-18" fill="#FFFFFF" mask="url(#mask-6)" points="17.3541451 7.94823529 29.3978238 7.94823529 29.3978238 5.36067227 17.3541451 5.36067227"></polygon>
                    <polygon id="Fill-20" fill="#FFFFFF" mask="url(#mask-6)" points="55.6724611 7.94823529 67.7161399 7.94823529 67.7161399 5.36067227 55.6724611 5.36067227"></polygon>
                    <polygon id="Fill-21" fill="#FFFFFF" mask="url(#mask-6)" points="92.5883161 7.94823529 104.631995 7.94823529 104.631995 5.36067227 92.5883161 5.36067227"></polygon>
                    <polygon id="Fill-22" fill="#FFFFFF" mask="url(#mask-6)" points="130.906632 7.94823529 142.950311 7.94823529 142.950311 5.36067227 130.906632 5.36067227"></polygon>
                    <polygon id="Fill-23" fill="#FFFFFF" mask="url(#mask-6)" points="167.018782 7.94823529 179.062461 7.94823529 179.062461 5.36067227 167.018782 5.36067227"></polygon>
                    <polygon id="Fill-24" fill="#FFFFFF" mask="url(#mask-6)" points="201.126917 7.94823529 213.170596 7.94823529 213.170596 5.36067227 201.126917 5.36067227"></polygon>
                    <polygon id="Fill-25" fill="#FFFFFF" mask="url(#mask-6)" points="237.506269 7.94823529 249.549948 7.94823529 249.549948 5.36067227 237.506269 5.36067227"></polygon>
                </g>
            </g>
        </g>
    </g>
</svg>