<?xml version="1.0" encoding="UTF-8"?>
<svg width="304px" height="17px" viewBox="0 0 304 17" version="1.1" xmlns="http://www.w3.org/2000/svg" xmlns:xlink="http://www.w3.org/1999/xlink">
    <!-- Generator: Sketch 47.1 (45422) - http://www.bohemiancoding.com/sketch -->
    <title>logo2</title>
    <desc>Created with Sketch.</desc>
    <defs>
        <polygon id="path-1" points="0.0842006207 15.7246556 16.2461514 15.7246556 16.2461514 0.424093961 0.0842006207 0.424093961 0.0842006207 15.7246556"></polygon>
        <polygon id="path-3" points="0.432896736 15.7246556 16.5948475 15.7246556 16.5948475 0.424093961 0.432896736 0.424093961 0.432896736 15.7246556"></polygon>
    </defs>
    <g id="Page-1" stroke="none" stroke-width="1" fill="none" fill-rule="evenodd">
        <g id="1366" transform="translate(-70.000000, -702.000000)">
            <g id="Group-18" transform="translate(0.000000, 674.000000)">
                <g id="Page-1-Copy-22" transform="translate(70.000000, 28.000000)">
                    <g id="logo2" transform="translate(0.000000, 0.362139)">
                        <polygon id="Fill-1" fill="#1D1D1B" points="300.163319 0.848581038 295.869009 8.48683248 291.588876 0.848581038 287.720689 0.848581038 287.720689 15.2028329 291.304532 15.2028329 291.304532 6.57471436 294.991558 13.0359753 296.733857 13.0359753 300.406705 6.57471436 300.406705 15.2028329 303.990548 15.2028329 303.990548 0.848581038"></polygon>
                        <polygon id="Fill-16" fill="#1D1D1B" points="260.733169 15.2228032 256.926419 15.2228032 256.926419 6.14574576 250.547966 15.2228032 246.755393 15.2228032 246.755393 0.86855135 250.547966 0.86855135 250.547966 9.93145659 256.926419 0.86855135 260.733169 0.86855135"></polygon>
                        <polygon id="Fill-14" fill="#1D1D1B" points="219.767795 4.15256704 216.032721 4.15256704 216.032721 15.2227246 212.110973 15.2227246 212.110973 4.15256704 208.347544 4.15256704 208.347544 0.868472727 219.767795 0.868472727"></polygon>
                        <polygon id="Fill-12" fill="#1D1D1B" points="181.35963 15.2228032 177.495381 15.2228032 177.495381 9.28595948 171.547777 9.28595948 171.547777 15.2228032 167.683528 15.2228032 167.683528 0.86855135 171.547777 0.86855135 171.547777 6.26053575 177.495381 6.26053575 177.495381 0.86855135 181.35963 0.86855135"></polygon>
                        <g id="Group-11" transform="translate(124.449935, 0.000000)">
                            <mask id="mask-2" fill="white">
                                <use xlink:href="#path-1"></use>
                            </mask>
                            <g id="Clip-10"></g>
                            <path d="M12.2094051,8.05291061 C12.2094051,6.89636219 11.8234527,5.91907485 11.0523357,5.12026235 C10.2820064,4.32223608 9.32106384,3.92282983 8.17265875,3.92282983 C7.02346599,3.92282983 6.06094814,4.32223608 5.28510519,5.12026235 C4.50926224,5.91907485 4.12094693,6.89636219 4.12094693,8.05291061 C4.12094693,9.21024526 4.50926224,10.1898913 5.28510519,10.992635 C6.06094814,11.7953786 7.02346599,12.1971436 8.17265875,12.1971436 C9.32106384,12.1971436 10.2820064,11.7953786 11.0523357,10.992635 C11.8234527,10.1898913 12.2094051,9.21024526 12.2094051,8.05291061 M16.2461514,8.05291061 C16.2461514,10.1560833 15.4844863,11.9534114 13.9619437,13.444895 C12.4008059,14.964683 10.4710443,15.7249701 8.17265875,15.7249701 C5.85458179,15.7249701 3.92009419,14.964683 2.36840829,13.444895 C0.84586573,11.9628462 0.0842006207,10.1663043 0.0842006207,8.05291061 C0.0842006207,5.94973793 0.84586573,4.16263082 2.36840829,2.69001683 C3.92009419,1.17966366 5.85458179,0.424093961 8.17265875,0.424093961 C10.4804962,0.424093961 12.4102578,1.17966366 13.9619437,2.69001683 C15.4844863,4.16263082 16.2461514,5.94973793 16.2461514,8.05291061" id="Fill-9" fill="#1D1D1B" mask="url(#mask-2)"></path>
                        </g>
                        <path d="M97.5468523,15.2228032 L93.682603,15.2228032 L93.682603,4.15264567 L89.3150404,4.15264567 L89.3150404,10.4047687 C89.3150404,13.8555444 88.0224939,15.5813253 85.4366133,15.5813253 C84.6702223,15.5813253 83.8463322,15.461818 82.9657307,15.2228032 L83.2524382,11.9968901 C83.5596247,12.1399845 83.922735,12.2115316 84.3449196,12.2115316 C84.7946722,12.2115316 85.1152489,12.0684373 85.3074374,11.7822485 C85.527194,11.4473134 85.6374661,10.8175409 85.6374661,9.89135872 L85.6374661,0.86855135 L97.5468523,0.86855135 L97.5468523,15.2228032 Z" id="Fill-7" fill="#1D1D1B"></path>
                        <g id="Group-6" transform="translate(39.382891, 0.000000)">
                            <mask id="mask-4" fill="white">
                                <use xlink:href="#path-3"></use>
                            </mask>
                            <g id="Clip-5"></g>
                            <path d="M12.5581012,8.05291061 C12.5581012,6.89636219 12.1721488,5.91907485 11.4018195,5.12026235 C10.6307025,4.32223608 9.67054762,3.92282983 8.52135486,3.92282983 C7.37216211,3.92282983 6.40964425,4.32223608 5.6338013,5.12026235 C4.85795835,5.91907485 4.46964305,6.89636219 4.46964305,8.05291061 C4.46964305,9.21024526 4.85795835,10.1898913 5.6338013,10.992635 C6.40964425,11.7953786 7.37216211,12.1971436 8.52135486,12.1971436 C9.67054762,12.1971436 10.6307025,11.7953786 11.4018195,10.992635 C12.1721488,10.1898913 12.5581012,9.21024526 12.5581012,8.05291061 M16.5948475,8.05291061 C16.5948475,10.1560833 15.83397,11.9534114 14.3106398,13.444895 C12.749502,14.964683 10.8197404,15.7249701 8.52135486,15.7249701 C6.20327791,15.7249701 4.26879031,14.964683 2.71789206,13.444895 C1.19456185,11.9628462 0.432896736,10.1663043 0.432896736,8.05291061 C0.432896736,5.94973793 1.19456185,4.16263082 2.71789206,2.69001683 C4.26879031,1.17966366 6.20327791,0.424093961 8.52135486,0.424093961 C10.8291923,0.424093961 12.7589539,1.17966366 14.3106398,2.69001683 C15.83397,4.16263082 16.5948475,5.94973793 16.5948475,8.05291061" id="Fill-4" fill="#1D1D1B" mask="url(#mask-4)"></path>
                        </g>
                        <path d="M8.84933558,10.8779236 C8.84933558,9.68284978 7.96794648,9.08531287 6.20595594,9.08531287 L3.79257239,9.08531287 L3.79257239,12.4268022 L6.49345105,12.4268022 C8.06404073,12.4268022 8.84933558,11.9102472 8.84933558,10.8779236 Z M8.26016753,5.11326488 C8.26016753,4.13833623 7.53709765,3.65087191 6.0909579,3.65087191 L3.79257239,3.65087191 L3.79257239,6.67629564 L5.81764064,6.67629564 C6.5745798,6.67629564 7.17792569,6.52298025 7.62846596,6.2171357 C8.04986289,5.92151217 8.26016753,5.552769 8.26016753,5.11326488 Z M12.8285829,11.193203 C12.8285829,12.274273 12.4260897,13.1823719 11.6218911,13.9182858 C10.6735511,14.7878592 9.30932774,15.2226459 7.52764576,15.2226459 L0,15.2226459 L0,0.868394104 L6.378453,0.868394104 C8.25544158,0.868394104 9.6629861,1.25128947 10.6018742,2.01629396 C11.396621,2.65628744 11.7943882,3.48340433 11.7943882,4.49685838 C11.7943882,5.98755573 11.1382692,6.92946259 9.82603127,7.32179275 C11.8274698,7.88552165 12.8285829,9.17651587 12.8285829,11.193203 Z" id="Fill-2" fill="#1D1D1B"></path>
                        <polygon id="Fill-18" fill="#7DC8D2" points="19.5417904 9.29563014 33.1036827 9.29563014 33.1036827 6.26942018 19.5417904 6.26942018"></polygon>
                        <polygon id="Fill-20" fill="#7DC8D2" points="62.6904733 9.29563014 76.2523656 9.29563014 76.2523656 6.26942018 62.6904733 6.26942018"></polygon>
                        <polygon id="Fill-21" fill="#7DC8D2" points="104.259902 9.29563014 117.821795 9.29563014 117.821795 6.26942018 104.259902 6.26942018"></polygon>
                        <polygon id="Fill-22" fill="#7DC8D2" points="147.408585 9.29563014 160.970478 9.29563014 160.970478 6.26942018 147.408585 6.26942018"></polygon>
                        <polygon id="Fill-23" fill="#7DC8D2" points="188.072995 9.29563014 201.634888 9.29563014 201.634888 6.26942018 188.072995 6.26942018"></polygon>
                        <polygon id="Fill-24" fill="#7DC8D2" points="226.480766 9.29563014 240.042658 9.29563014 240.042658 6.26942018 226.480766 6.26942018"></polygon>
                        <polygon id="Fill-25" fill="#7DC8D2" points="267.446061 9.29563014 281.007954 9.29563014 281.007954 6.26942018 267.446061 6.26942018"></polygon>
                    </g>
                </g>
            </g>
        </g>
    </g>
</svg>